<svg width="1400" height="920" viewBox="0 0 1400 920" fill="none" xmlns="http://www.w3.org/2000/svg">
  <rect width="1400" height="920" rx="32" fill="#F3F0EA"/>
  <rect x="72" y="72" width="1256" height="776" rx="28" fill="#FFFDF8" stroke="#D8CFC3"/>
  <rect x="118" y="130" width="240" height="660" rx="24" fill="#FFFFFF" stroke="#E0D7CC"/>
  <rect x="392" y="130" width="440" height="660" rx="24" fill="#F8FBFD"/>
  <rect x="866" y="130" width="416" height="660" rx="24" fill="#FFFFFF" stroke="#E0D7CC"/>
  <text x="160" y="206" fill="#1F262D" font-family="Georgia, serif" font-size="42">Content workflow</text>
  <rect x="160" y="270" width="156" height="84" rx="18" fill="#E9EFF9"/>
  <rect x="160" y="382" width="156" height="84" rx="18" fill="#DBEEE8"/>
  <rect x="160" y="494" width="156" height="84" rx="18" fill="#F5EFE6"/>
  <text x="434" y="198" fill="#1F262D" font-family="Georgia, serif" font-size="48">Create content with fewer repeated decisions</text>
  <rect x="434" y="254" width="356" height="14" rx="7" fill="#97A4AB"/>
  <rect x="434" y="314" width="356" height="120" rx="24" fill="#FFFFFF"/>
  <rect x="434" y="462" width="356" height="120" rx="24" fill="#FFFFFF"/>
  <rect x="434" y="610" width="356" height="120" rx="24" fill="#FFFFFF"/>
  <rect x="906" y="212" width="336" height="86" rx="22" fill="#EEF4F7"/>
  <rect x="906" y="332" width="336" height="194" rx="22" fill="#F4F7FB"/>
  <rect x="906" y="560" width="336" height="126" rx="22" fill="#F7F0E8"/>
</svg>
